HIERARCHY
ROOT Pelvis
{
	OFFSET 0.000000 0.000000 0.000000
	CHANNELS 6 Xposition Yposition Zposition Xrotation Yrotation Zrotation
	JOINT LeftUpLeg_virtual
	{
		OFFSET 0.000000 0.000000 0.000000
		CHANNELS 3 Xrotation Yrotation Zrotation
		JOINT LeftUpLeg
		{
			OFFSET 8.479700 -4.795502 -0.379100
			CHANNELS 3 Xrotation Yrotation Zrotation
			JOINT LeftLeg
			{
				OFFSET 0.024144 -32.555107 0.112900
				CHANNELS 3 Xrotation Yrotation Zrotation
				JOINT LeftFoot
				{
					OFFSET -0.024144 -32.638630 -3.012600
					CHANNELS 3 Xrotation Yrotation Zrotation
					JOINT LeftToeBase
					{
						OFFSET 0.970200 -13.225400 11.864200
						CHANNELS 3 Xrotation Yrotation Zrotation
						End Site
						{
							OFFSET 0 0 0
						}
					}
				}
			}
		}
	}
	JOINT RightUpLeg_virtual
	{
		OFFSET 0.000000 0.000000 0.000000
		CHANNELS 3 Xrotation Yrotation Zrotation
		JOINT RightUpLeg
		{
			OFFSET -8.479700 -4.795502 -0.379100
			CHANNELS 3 Xrotation Yrotation Zrotation
			JOINT RightLeg
			{
				OFFSET -0.023144 -32.555092 0.112900
				CHANNELS 3 Xrotation Yrotation Zrotation
				JOINT RightFoot
				{
					OFFSET 0.023144 -32.638641 -3.012700
					CHANNELS 3 Xrotation Yrotation Zrotation
					JOINT RightToeBase
					{
						OFFSET -0.970200 -13.225400 11.864200
						CHANNELS 3 Xrotation Yrotation Zrotation
						End Site
						{
							OFFSET 0 0 0
						}
					}
				}
			}
		}
	}
	JOINT Hips_virtual
	{
		OFFSET 0.000000 0.000000 0.000000
		CHANNELS 3 Xrotation Yrotation Zrotation
		JOINT Hips
		{
			OFFSET -0.000000 -0.000000 -0.000000
			CHANNELS 3 Xrotation Yrotation Zrotation
			JOINT Spine
			{
				OFFSET 0.000000 7.722000 1.166200
				CHANNELS 3 Xrotation Yrotation Zrotation
				JOINT Spine1
				{
					OFFSET 0.000000 12.024101 0.248800
					CHANNELS 3 Xrotation Yrotation Zrotation
					JOINT Spine2
					{
						OFFSET 0.000000 11.502998 -0.491200
						CHANNELS 3 Xrotation Yrotation Zrotation
						JOINT Neck_virtual
						{
							OFFSET 0.000000 0.000000 0.000000
							CHANNELS 3 Xrotation Yrotation Zrotation
							JOINT Neck
							{
								OFFSET 0.000000 18.430702 -3.123100
								CHANNELS 3 Xrotation Yrotation Zrotation
								JOINT Head
								{
									OFFSET 0.000000 9.051102 1.034000
									CHANNELS 3 Xrotation Yrotation Zrotation
									End Site
									{
										OFFSET 0 0 0
									}
								}
							}
						}
						JOINT LeftShoulder_virtual
						{
							OFFSET 0.000000 0.000000 0.000000
							CHANNELS 3 Xrotation Yrotation Zrotation
							JOINT LeftShoulder
							{
								OFFSET 6.197800 13.665199 -4.064700
								CHANNELS 3 Xrotation Yrotation Zrotation
								JOINT LeftArm
								{
									OFFSET 7.778100 -0.187103 -1.709300
									CHANNELS 3 Xrotation Yrotation Zrotation
									JOINT LeftForeArm
									{
										OFFSET 22.049376 0.000000 0.000000
										CHANNELS 3 Xrotation Yrotation Zrotation
										JOINT LeftHand
										{
											OFFSET 23.009392 0.000000 0.000000
											CHANNELS 3 Xrotation Yrotation Zrotation
											End Site
											{
												OFFSET 0 0 0
											}
										}
									}
								}
							}
						}
						JOINT RightShoulder_virtual
						{
							OFFSET 0.000000 0.000000 0.000000
							CHANNELS 3 Xrotation Yrotation Zrotation
							JOINT RightShoulder
							{
								OFFSET -6.197800 13.665199 -4.064700
								CHANNELS 3 Xrotation Yrotation Zrotation
								JOINT RightArm
								{
									OFFSET -7.778100 -0.187103 -1.709300
									CHANNELS 3 Xrotation Yrotation Zrotation
									JOINT RightForeArm
									{
										OFFSET -22.049376 0.000000 0.000000
										CHANNELS 3 Xrotation Yrotation Zrotation
										JOINT RightHand
										{
											OFFSET -23.009392 0.000000 0.000000
											CHANNELS 3 Xrotation Yrotation Zrotation
											End Site
											{
												OFFSET 0 0 0
											}
										}
									}
								}
							}
						}
					}
				}
			}
		}
	}
}
MOTION
Frames: 6
Frame Time: 0.03333333
-1.970240 76.852280 41.881950 0.000000 0.000000 0.000000 29.867195 6.554596 -18.029317 -68.184330 -2.053324 13.110740 40.339360 7.322279 -7.514122 -3.176445 -0.026039 7.824310 0.000000 0.000000 0.000000 29.867195 6.554596 -18.029317 -14.956910 -23.417003 -20.668125 79.874500 -5.528055 -3.186948 32.009354 0.870444 3.028248 0.000000 0.000000 0.000000 29.867195 6.554596 -18.029317 -0.000002 0.000000 -0.000001 6.064239 11.589721 -8.033342 11.648225 11.205353 -7.545695 0.000000 0.000000 0.000000 11.698383 11.155149 -7.567844 -9.883404 -7.149090 7.463529 0.000000 0.000000 0.000000 11.698383 11.155149 -7.567844 -0.266300 3.848956 2.890090 28.180051 -44.869818 -18.300126 -0.000001 -24.379723 -0.000020 0.000000 0.000000 0.000000 11.698383 11.155149 -7.567844 4.952147 16.802282 -7.381358 -6.598526 60.118219 21.651623 -0.000006 37.609108 0.000011 0.000000 0.000000 0.000000 
-2.013317 76.800186 42.030609 0.000000 0.000000 0.000000 28.992295 7.038432 -17.879321 -67.476142 -1.510157 13.171046 40.850873 6.668356 -7.393223 -3.589467 -0.025596 7.853229 0.000000 0.000000 0.000000 28.992295 7.038432 -17.879321 -15.827133 -23.170104 -20.012434 78.019571 -4.528524 -3.295753 32.083810 0.610971 1.943998 0.000000 0.000000 0.000000 28.992295 7.038432 -17.879321 0.000001 0.000001 -0.000000 6.077361 10.939995 -8.378998 11.676780 10.962425 -7.565066 0.000000 0.000000 0.000000 11.760139 10.875358 -7.586995 -9.995538 -7.064435 7.301290 0.000000 0.000000 0.000000 11.760139 10.875358 -7.586995 -0.255794 3.725910 3.215391 28.574271 -46.646009 -14.108382 0.000002 -23.223236 -0.000021 0.000000 0.000000 0.000000 11.760139 10.875358 -7.586995 4.755305 16.291736 -6.875268 -6.385692 57.667130 19.002358 -0.000003 35.965597 0.000019 0.000000 0.000000 0.000000 
-2.042961 76.767403 42.177151 0.000000 0.000000 0.000000 28.115842 7.515419 -17.755403 -66.752818 -0.859290 13.253302 41.272279 5.906767 -7.198655 -3.967228 -0.026073 7.909482 0.000000 0.000000 0.000000 28.115842 7.515419 -17.755403 -16.673398 -22.832470 -19.362425 76.123025 -3.678576 -3.541440 32.101800 0.496847 1.490200 0.000000 0.000000 0.000000 28.115842 7.515419 -17.755403 -0.000002 -0.000000 0.000001 6.106814 10.261163 -8.731803 11.743709 10.656885 -7.606248 0.000000 0.000000 0.000000 11.860017 10.534739 -7.618972 -10.124083 -6.973872 7.156034 0.000000 0.000000 0.000000 11.860017 10.534739 -7.618972 -0.246509 3.605289 3.561326 28.114706 -48.438885 -10.572357 0.000003 -21.961920 0.000007 0.000000 0.000000 0.000000 11.860017 10.534739 -7.618972 4.570553 15.669528 -6.602624 -6.422815 55.485858 16.577503 -0.000004 34.357580 0.000017 0.000000 0.000000 0.000000 
-2.043905 76.749924 42.321960 0.000000 0.000000 0.000000 27.227096 7.991932 -17.639331 -65.999421 -0.129878 13.308633 41.630696 5.100650 -6.912979 -4.326971 -0.029366 7.975292 0.000000 0.000000 0.000000 27.227096 7.991932 -17.639331 -17.500627 -22.414785 -18.733682 74.161019 -2.948052 -3.885006 32.032809 0.459021 1.363258 0.000000 0.000000 0.000000 27.227096 7.991932 -17.639331 -0.000001 0.000000 -0.000003 6.154967 9.538605 -9.086930 11.857623 10.258347 -7.663909 0.000000 0.000000 0.000000 12.006340 10.104660 -7.655104 -10.259054 -6.869440 7.028379 0.000000 0.000000 0.000000 12.006340 10.104660 -7.655104 -0.235976 3.479653 3.929603 26.629956 -50.227661 -7.790001 -0.000003 -20.582008 0.000010 0.000000 0.000000 0.000000 12.006340 10.104660 -7.655104 4.407069 14.991002 -6.564023 -6.689369 53.586010 14.333826 -0.000024 32.841452 0.000026 0.000000 0.000000 0.000000 
-1.999176 76.747070 42.469284 0.000000 0.000000 0.000000 26.311536 8.469597 -17.507354 -65.179157 0.632299 13.293387 41.943785 4.335840 -6.543925 -4.688208 -0.036884 8.036310 0.000000 0.000000 0.000000 26.311536 8.469597 -17.507354 -18.307707 -21.947775 -18.151706 72.107810 -2.256101 -4.263929 31.827616 0.408203 1.176925 0.000000 0.000000 0.000000 26.311536 8.469597 -17.507354 0.000002 0.000000 0.000000 6.221683 8.763286 -9.436355 12.021807 9.741554 -7.730866 0.000000 0.000000 0.000000 12.202117 9.561373 -7.685885 -10.392263 -6.743324 6.915842 0.000000 0.000000 0.000000 12.202117 9.561373 -7.685885 -0.221343 3.342406 4.318541 24.076407 -51.955958 -5.803383 0.000005 -19.112205 -0.000005 0.000000 0.000000 0.000000 12.202117 9.561373 -7.685885 4.269293 14.317941 -6.742139 -7.185918 51.966688 12.264315 -0.000005 31.452789 0.000009 0.000000 0.000000 0.000000 
-1.894455 76.761490 42.625320 0.000000 0.000000 0.000000 25.352197 8.942100 -17.343046 -64.243673 1.368256 13.185775 42.217457 3.702930 -6.124546 -5.068286 -0.049311 8.084767 0.000000 0.000000 0.000000 25.352197 8.942100 -17.343046 -19.090485 -21.492017 -17.650732 69.940331 -1.495453 -4.619296 31.429635 0.266709 0.583973 0.000000 0.000000 0.000000 25.352197 8.942100 -17.343046 0.000001 0.000000 0.000000 6.304473 7.933376 -9.769118 12.233798 9.089021 -7.798340 0.000000 0.000000 0.000000 12.444512 8.888629 -7.701308 -10.518186 -6.588522 6.813050 0.000000 0.000000 0.000000 12.444512 8.888629 -7.701308 -0.200071 3.190720 4.720424 20.532384 -53.536949 -4.599969 -0.000006 -17.624627 0.000002 0.000000 0.000000 0.000000 12.444512 8.888629 -7.701308 4.159116 13.705688 -7.106582 -7.888409 50.623153 10.353905 0.000001 30.203370 -0.000004 0.000000 0.000000 0.000000 
